<svg width="503.613" height="147.364" viewBox="0 0 503.613 147.364" xmlns="http://www.w3.org/2000/svg"><g id="svgGroup" stroke-linecap="round" fill-rule="evenodd" font-size="9pt" stroke="#facc15" stroke-width="0.25mm" fill="#facc15" style="stroke:#facc15;stroke-width:0.25mm;fill:#facc15"><path d="M 368.262 52.344 L 331.934 52.344 L 331.934 131.543 A 2415.439 2415.439 0 0 1 341.016 130.249 A 1840.787 1840.787 0 0 1 349.316 129.102 Q 352.637 128.613 356.006 128.174 A 971.03 971.03 0 0 0 359.241 127.747 A 749.75 749.75 0 0 0 362.207 127.344 A 160.192 160.192 0 0 1 364.221 127.078 Q 365.808 126.88 367.09 126.758 A 90.435 90.435 0 0 1 368.009 126.675 Q 369.33 126.563 369.922 126.563 Q 371.582 126.563 372.754 127.197 Q 373.732 127.727 373.894 129.175 A 5.502 5.502 0 0 1 373.926 129.785 L 373.926 138.77 A 6.404 6.404 0 0 1 373.047 142.041 A 2.457 2.457 0 0 1 371.988 142.993 Q 371.093 143.443 369.616 143.533 A 12.718 12.718 0 0 1 368.848 143.555 L 273.926 143.555 A 39.354 39.354 0 0 1 270.972 143.451 Q 269.577 143.346 268.389 143.133 A 16.709 16.709 0 0 1 266.455 142.676 A 13.651 13.651 0 0 1 264.316 141.833 Q 263.165 141.256 262.299 140.497 A 7.977 7.977 0 0 1 261.914 140.137 A 8.212 8.212 0 0 1 259.925 136.859 A 10.242 10.242 0 0 1 259.668 135.938 Q 259.164 133.756 259.094 130.924 A 37.759 37.759 0 0 1 259.082 129.981 L 259.082 20.313 A 39.805 39.805 0 0 1 259.225 16.821 Q 259.367 15.217 259.648 13.857 A 16.547 16.547 0 0 1 260.352 11.377 A 13.905 13.905 0 0 1 261.614 8.812 A 10.089 10.089 0 0 1 263.965 6.201 A 11.773 11.773 0 0 1 268.098 4.179 A 14.582 14.582 0 0 1 269.58 3.857 A 39.475 39.475 0 0 1 273.263 3.438 A 52.416 52.416 0 0 1 276.855 3.32 L 365.137 3.32 Q 367.725 3.32 368.859 4.24 A 2.331 2.331 0 0 1 369.385 4.834 A 6.32 6.32 0 0 1 370.313 8.203 L 370.313 15.137 A 5.754 5.754 0 0 1 370.248 16.031 Q 370.056 17.249 369.287 17.725 A 3.907 3.907 0 0 1 368.197 18.178 Q 367.711 18.303 367.139 18.342 A 7.89 7.89 0 0 1 366.602 18.359 Q 365.634 18.359 363.659 18.168 A 84.223 84.223 0 0 1 363.623 18.164 A 117.763 117.763 0 0 1 361.75 17.965 Q 360.468 17.819 358.984 17.627 A 8791.633 8791.633 0 0 0 356.25 17.273 A 10812.849 10812.849 0 0 0 353.32 16.895 Q 350.293 16.504 347.266 16.016 A 1181.454 1181.454 0 0 1 339.917 14.868 A 1519.119 1519.119 0 0 1 331.934 13.574 L 331.934 38.379 L 368.262 38.379 A 2.952 2.952 0 0 1 369.073 38.481 Q 370.313 38.836 370.313 40.43 L 370.313 50.195 A 3.25 3.25 0 0 1 370.214 51.033 Q 369.928 52.105 368.804 52.3 A 3.17 3.17 0 0 1 368.262 52.344 Z M 232.031 143.75 L 218.359 116.992 A 50.544 50.544 0 0 1 210.791 120.41 Q 206.934 121.777 202.832 122.656 L 202.832 129.981 A 24.565 24.565 0 0 1 202.661 132.947 A 18.404 18.404 0 0 1 202.148 135.596 Q 201.465 138.086 199.756 139.844 A 10.192 10.192 0 0 1 197.348 141.656 A 13.709 13.709 0 0 1 195.264 142.578 A 15.511 15.511 0 0 1 192.769 143.21 Q 191.522 143.426 190.081 143.506 A 32.226 32.226 0 0 1 188.281 143.555 L 145.02 143.555 Q 140.332 143.555 137.402 142.676 Q 134.891 141.922 133.313 140.595 A 7.87 7.87 0 0 1 132.813 140.137 A 8.212 8.212 0 0 1 130.824 136.859 A 10.242 10.242 0 0 1 130.566 135.938 Q 130.063 133.756 129.992 130.924 A 37.759 37.759 0 0 1 129.98 129.981 L 129.98 16.992 Q 129.98 14.001 130.429 11.682 A 18.614 18.614 0 0 1 130.566 11.035 A 9.401 9.401 0 0 1 131.603 8.377 A 8.288 8.288 0 0 1 132.813 6.787 Q 134.347 5.208 136.966 4.337 A 15.559 15.559 0 0 1 137.402 4.199 Q 139.482 3.576 142.446 3.394 A 42.3 42.3 0 0 1 145.02 3.32 L 188.574 3.32 Q 195.605 3.32 202.393 4.492 A 58.322 58.322 0 0 1 215.283 8.252 A 44.346 44.346 0 0 1 226.514 15.137 Q 231.641 19.434 235.4 25.732 Q 239.16 32.031 241.26 40.43 A 66.98 66.98 0 0 1 242.818 49.312 Q 243.292 53.599 243.351 58.387 A 111.458 111.458 0 0 1 243.359 59.766 A 130.052 130.052 0 0 1 243.066 68.701 A 96.887 96.887 0 0 1 242.188 76.758 A 94.92 94.92 0 0 1 240.694 84.438 A 73.213 73.213 0 0 1 238.965 90.527 A 59.262 59.262 0 0 1 236.396 96.999 A 46.812 46.812 0 0 1 234.033 101.416 A 48.653 48.653 0 0 1 229.564 107.644 A 42.397 42.397 0 0 1 227.637 109.766 L 247.168 135.547 A 6.243 6.243 0 0 1 247.744 136.517 Q 248.019 137.104 248.105 137.671 A 3.412 3.412 0 0 1 248.145 138.184 Q 248.145 139.648 247.119 140.723 A 10.423 10.423 0 0 1 245.569 142.065 A 9.177 9.177 0 0 1 244.922 142.481 L 239.063 145.898 A 7.856 7.856 0 0 1 237.646 146.533 Q 236.914 146.777 236.133 146.777 Q 235.059 146.777 233.984 146.094 A 4.262 4.262 0 0 1 233.144 145.377 Q 232.553 144.736 232.031 143.75 Z M 402.93 105.957 L 409.766 36.914 A 48.429 48.429 0 0 1 411.315 28.559 Q 412.817 23.262 415.527 19.141 A 36.88 36.88 0 0 1 427.148 7.764 A 47.413 47.413 0 0 1 441.26 2.048 A 53.903 53.903 0 0 1 442.578 1.758 A 84.612 84.612 0 0 1 459.766 0 A 163.485 163.485 0 0 1 473.73 0.586 A 292.307 292.307 0 0 1 480.298 1.221 A 228.104 228.104 0 0 1 486.328 1.953 A 321.623 321.623 0 0 1 486.418 1.965 Q 490.786 2.559 494.252 3.152 A 144.322 144.322 0 0 1 496.289 3.516 A 1105.596 1105.596 0 0 1 498.248 3.882 Q 500.841 4.369 502.292 4.658 A 147.416 147.416 0 0 1 502.441 4.688 Q 502.984 4.823 503.275 5.063 A 0.869 0.869 0 0 1 503.613 5.762 Q 503.613 5.929 503.47 6.668 A 43.22 43.22 0 0 1 503.418 6.934 L 501.953 13.965 Q 501.799 14.506 501.552 14.711 A 0.556 0.556 0 0 1 501.416 14.795 Q 501.099 14.931 500.824 14.941 A 1.194 1.194 0 0 1 500.781 14.941 A 21.179 21.179 0 0 0 497.246 15.222 Q 495.217 15.565 493.525 16.33 A 13.129 13.129 0 0 0 493.359 16.406 A 13.949 13.949 0 0 0 488.184 20.508 A 17.813 17.813 0 0 0 485.751 24.777 A 21.781 21.781 0 0 0 485.059 26.758 A 38.485 38.485 0 0 0 483.905 32.003 A 45.716 45.716 0 0 0 483.594 34.57 L 477.734 105.566 A 47.564 47.564 0 0 1 473.34 121.777 A 40.81 40.81 0 0 1 463.281 135.059 A 44.25 44.25 0 0 1 453.691 141.419 A 56.1 56.1 0 0 1 447.461 144.043 A 56.163 56.163 0 0 1 436.389 146.682 A 75.982 75.982 0 0 1 425.977 147.363 A 153.331 153.331 0 0 1 412.359 146.776 A 138.295 138.295 0 0 1 410.352 146.582 A 230.816 230.816 0 0 1 403.174 145.728 A 173.368 173.368 0 0 1 396.68 144.727 Q 390.527 143.652 386.084 142.627 Q 381.992 141.683 380.012 141.194 A 113.155 113.155 0 0 1 379.688 141.113 Q 379.145 140.978 378.854 140.737 A 0.869 0.869 0 0 1 378.516 140.039 Q 378.516 139.941 378.711 138.965 L 380.371 131.543 Q 380.526 131.002 380.772 130.797 A 0.556 0.556 0 0 1 380.908 130.713 Q 381.225 130.577 381.501 130.567 A 1.194 1.194 0 0 1 381.543 130.566 A 25.52 25.52 0 0 0 386.894 130.023 A 22.025 22.025 0 0 0 389.502 129.297 Q 393.164 128.027 395.898 125.098 Q 398.551 122.255 400.331 117.758 A 33.307 33.307 0 0 0 400.439 117.481 Q 401.92 113.64 402.646 108.357 A 65.415 65.415 0 0 0 402.93 105.957 Z M 50.684 3.32 L 65.234 3.32 A 11.865 11.865 0 0 1 66.582 3.393 Q 67.276 3.472 67.874 3.639 A 6.625 6.625 0 0 1 68.262 3.76 Q 69.531 4.199 70.557 5.273 Q 71.442 6.201 72.218 7.638 A 16.704 16.704 0 0 1 72.461 8.106 A 36.192 36.192 0 0 1 73.134 9.534 Q 73.491 10.335 73.864 11.255 A 70.703 70.703 0 0 1 74.316 12.402 L 119.141 132.129 Q 119.558 133.299 119.762 134.254 A 10.813 10.813 0 0 1 119.824 134.57 A 11.987 11.987 0 0 1 120.02 136.719 A 9.303 9.303 0 0 1 119.825 138.689 Q 119.38 140.74 117.92 141.895 A 8.169 8.169 0 0 1 116.002 143.044 A 6.501 6.501 0 0 1 113.477 143.555 L 58.105 143.555 A 16.86 16.86 0 0 1 56.318 143.465 Q 54.926 143.317 53.857 142.92 Q 52.205 142.306 51.055 141.464 A 8.373 8.373 0 0 1 50.977 141.406 A 9.091 9.091 0 0 1 50.054 140.619 Q 49.593 140.165 49.262 139.688 A 5.494 5.494 0 0 1 49.17 139.551 A 8.56 8.56 0 0 1 48.77 138.874 Q 48.589 138.529 48.471 138.213 A 3.959 3.959 0 0 1 48.34 137.793 L 47.266 134.375 L 19.824 134.375 L 19.141 137.305 A 23.552 23.552 0 0 1 18.845 138.603 Q 18.687 139.209 18.508 139.742 A 14.17 14.17 0 0 1 18.457 139.893 A 8.733 8.733 0 0 1 17.971 141.033 A 6.891 6.891 0 0 1 17.48 141.846 A 3.611 3.611 0 0 1 16.179 142.968 A 4.447 4.447 0 0 1 15.869 143.115 A 4.772 4.772 0 0 1 14.971 143.392 Q 14.535 143.483 14.024 143.524 A 10.741 10.741 0 0 1 13.184 143.555 L 3.125 143.555 A 5.868 5.868 0 0 1 1.984 143.454 Q 0.195 143.098 0.019 141.48 A 3.4 3.4 0 0 1 0 141.113 A 5.67 5.67 0 0 1 0.052 140.375 Q 0.134 139.758 0.342 139.014 A 33.96 33.96 0 0 1 0.632 138.036 Q 0.768 137.603 0.927 137.128 A 64.479 64.479 0 0 1 1.27 136.133 L 42.09 12.598 A 34.629 34.629 0 0 1 43.044 9.958 Q 44.097 7.397 45.323 5.869 A 9.644 9.644 0 0 1 45.41 5.762 A 6.531 6.531 0 0 1 49.072 3.546 A 9.434 9.434 0 0 1 50.684 3.32 Z M 469.531 105.566 L 475.391 34.57 A 41.948 41.948 0 0 1 476.286 28.481 A 37.705 37.705 0 0 1 476.611 27.148 A 27.956 27.956 0 0 1 478.123 22.829 A 23.809 23.809 0 0 1 479.15 20.801 A 16.796 16.796 0 0 1 483.252 15.967 A 13.994 13.994 0 0 1 487.911 13.52 A 16.766 16.766 0 0 1 489.16 13.184 A 41.98 41.98 0 0 0 484.769 13.586 Q 480.816 14.174 478.076 15.527 A 20.514 20.514 0 0 0 474.809 17.518 A 15.043 15.043 0 0 0 471.68 20.654 Q 469.434 23.731 468.604 27.441 A 56.386 56.386 0 0 0 467.716 32.406 A 48.342 48.342 0 0 0 467.48 34.57 L 461.523 105.566 A 36.84 36.84 0 0 1 460.083 112.963 A 42.342 42.342 0 0 1 459.521 114.697 A 40.312 40.312 0 0 1 455.127 123.584 Q 452.344 127.832 448.535 131.592 Q 444.727 135.352 439.941 138.086 A 47.03 47.03 0 0 0 447.063 135.819 A 36.315 36.315 0 0 0 452.783 132.861 A 38.826 38.826 0 0 0 458.8 128.159 A 32.823 32.823 0 0 0 461.768 124.902 A 36.034 36.034 0 0 0 466.601 116.939 A 33.35 33.35 0 0 0 467.236 115.381 A 38.287 38.287 0 0 0 469.055 109.037 A 32.425 32.425 0 0 0 469.531 105.566 Z M 110.254 131.934 L 66.309 14.648 A 8.953 8.953 0 0 0 65.897 13.718 Q 65.374 12.708 64.726 12.25 A 2.204 2.204 0 0 0 64.404 12.061 Q 63.541 11.648 61.726 11.552 A 22.518 22.518 0 0 0 60.547 11.523 L 57.129 11.523 L 103.32 135.352 L 108.008 135.352 A 6.6 6.6 0 0 0 108.817 135.306 Q 109.68 135.199 110.16 134.841 A 1.513 1.513 0 0 0 110.4 134.619 Q 111.001 133.926 110.333 132.139 A 9.641 9.641 0 0 0 110.254 131.934 Z M 323.633 132.715 L 323.633 12.207 L 316.016 11.133 L 316.016 133.691 L 323.633 132.715 Z M 194.531 129.102 L 194.531 16.309 Q 192.578 16.211 190.479 16.162 A 217.184 217.184 0 0 0 188.993 16.132 Q 188.411 16.123 187.892 16.118 A 106.875 106.875 0 0 0 186.914 16.113 L 186.914 135.352 A 62.525 62.525 0 0 0 188.293 135.337 Q 189.704 135.306 190.707 135.207 A 19.551 19.551 0 0 0 190.723 135.205 Q 191.869 135.091 192.656 134.677 A 3.397 3.397 0 0 0 193.066 134.424 A 2.891 2.891 0 0 0 194.055 133.142 A 3.945 3.945 0 0 0 194.238 132.568 A 8.365 8.365 0 0 0 194.392 131.708 Q 194.512 130.797 194.529 129.527 A 32.207 32.207 0 0 0 194.531 129.102 Z M 202.832 17.773 L 202.832 109.863 Q 209.863 108.301 214.941 104.15 A 32.048 32.048 0 0 0 222.622 94.903 A 37.127 37.127 0 0 0 223.242 93.75 A 48.002 48.002 0 0 0 226.484 85.657 A 61.951 61.951 0 0 0 228.027 79.346 A 86.424 86.424 0 0 0 229.332 69.129 A 108.779 108.779 0 0 0 229.59 61.523 A 86.838 86.838 0 0 0 229.095 52.068 A 69.586 69.586 0 0 0 228.027 45.313 A 50.177 50.177 0 0 0 225.822 37.721 A 39.922 39.922 0 0 0 223.242 32.227 A 29.543 29.543 0 0 0 214.941 22.852 A 28.163 28.163 0 0 0 206.835 18.792 A 35.176 35.176 0 0 0 202.832 17.773 Z M 33.105 84.18 L 22.852 122.363 L 43.945 122.363 L 33.105 84.18 Z" vector-effect="non-scaling-stroke"/></g></svg>